<svg width="800" height="300" viewBox="0 0 800 300" fill="none" xmlns="http://www.w3.org/2000/svg">
<path d="M39.056 230V73.2H68.176V205.36H150.16V230H39.056ZM173.15 230V73.2H202.27V230H173.15ZM271.561 138.384H349.513V162.352H271.561V138.384ZM273.801 205.584H362.281V230H244.681V73.2H359.145V97.616H273.801V205.584ZM394.744 230V73.2H459.256C473.144 73.2 485.016 75.44 494.872 79.92C504.877 84.4 512.568 90.8213 517.944 99.184C523.32 107.547 526.008 117.477 526.008 128.976C526.008 140.475 523.32 150.405 517.944 158.768C512.568 166.981 504.877 173.328 494.872 177.808C485.016 182.139 473.144 184.304 459.256 184.304H410.872L423.864 171.088V230H394.744ZM497.336 230L457.688 173.104H488.823L528.696 230H497.336ZM423.864 174.224L410.872 160.336H457.912C470.754 160.336 480.386 157.573 486.807 152.048C493.378 146.523 496.664 138.832 496.664 128.976C496.664 118.971 493.378 111.28 486.807 105.904C480.386 100.528 470.754 97.84 457.912 97.84H410.872L423.864 83.504V174.224Z" fill="white"/>
<path d="M548.104 230.192C546.824 230.192 545.632 229.976 544.528 229.544C543.44 229.112 542.496 228.512 541.696 227.744C540.896 226.96 540.272 226.048 539.824 225.008C539.376 223.968 539.152 222.832 539.152 221.6C539.152 220.368 539.376 219.232 539.824 218.192C540.272 217.152 540.896 216.248 541.696 215.48C542.496 214.696 543.44 214.088 544.528 213.656C545.616 213.224 546.808 213.008 548.104 213.008C549.384 213.008 550.56 213.224 551.632 213.656C552.72 214.072 553.664 214.672 554.464 215.456C555.28 216.224 555.904 217.128 556.336 218.168C556.784 219.208 557.008 220.352 557.008 221.6C557.008 222.848 556.784 223.992 556.336 225.032C555.904 226.072 555.28 226.984 554.464 227.768C553.664 228.536 552.72 229.136 551.632 229.568C550.56 229.984 549.384 230.192 548.104 230.192ZM548.104 228.056C549.032 228.056 549.888 227.896 550.672 227.576C551.472 227.256 552.16 226.808 552.736 226.232C553.328 225.64 553.784 224.952 554.104 224.168C554.44 223.384 554.608 222.528 554.608 221.6C554.608 220.672 554.44 219.816 554.104 219.032C553.784 218.248 553.328 217.568 552.736 216.992C552.16 216.4 551.472 215.944 550.672 215.624C549.888 215.304 549.032 215.144 548.104 215.144C547.16 215.144 546.288 215.304 545.488 215.624C544.704 215.944 544.016 216.4 543.424 216.992C542.832 217.568 542.368 218.248 542.032 219.032C541.712 219.816 541.552 220.672 541.552 221.6C541.552 222.528 541.712 223.384 542.032 224.168C542.368 224.952 542.832 225.64 543.424 226.232C544.016 226.808 544.704 227.256 545.488 227.576C546.288 227.896 547.16 228.056 548.104 228.056ZM567.084 230.144C565.996 230.144 565.012 229.904 564.132 229.424C563.268 228.928 562.58 228.2 562.068 227.24C561.572 226.28 561.324 225.08 561.324 223.64C561.324 222.2 561.58 221 562.092 220.04C562.62 219.08 563.316 218.36 564.18 217.88C565.06 217.4 566.028 217.16 567.084 217.16C568.332 217.16 569.436 217.432 570.396 217.976C571.356 218.52 572.116 219.28 572.676 220.256C573.236 221.216 573.516 222.344 573.516 223.64C573.516 224.936 573.236 226.072 572.676 227.048C572.116 228.024 571.356 228.784 570.396 229.328C569.436 229.872 568.332 230.144 567.084 230.144ZM560.34 230V212.192H562.644V220.664L562.404 223.616L562.548 226.568V230H560.34ZM566.892 228.128C567.708 228.128 568.436 227.944 569.076 227.576C569.732 227.208 570.244 226.688 570.612 226.016C570.996 225.328 571.188 224.536 571.188 223.64C571.188 222.728 570.996 221.944 570.612 221.288C570.244 220.616 569.732 220.096 569.076 219.728C568.436 219.36 567.708 219.176 566.892 219.176C566.092 219.176 565.364 219.36 564.708 219.728C564.068 220.096 563.556 220.616 563.172 221.288C562.804 221.944 562.62 222.728 562.62 223.64C562.62 224.536 562.804 225.328 563.172 226.016C563.556 226.688 564.068 227.208 564.708 227.576C565.364 227.944 566.092 228.128 566.892 228.128ZM575.068 234.8C574.54 234.8 574.036 234.736 573.556 234.608C573.06 234.48 572.644 234.288 572.308 234.032L573.052 232.256C573.532 232.656 574.156 232.856 574.924 232.856C575.532 232.856 575.996 232.664 576.316 232.28C576.652 231.912 576.82 231.36 576.82 230.624V217.28H579.124V230.576C579.124 231.872 578.772 232.896 578.068 233.648C577.38 234.416 576.38 234.8 575.068 234.8ZM577.972 214.832C577.524 214.832 577.148 214.688 576.844 214.4C576.556 214.112 576.412 213.76 576.412 213.344C576.412 212.912 576.556 212.552 576.844 212.264C577.148 211.976 577.524 211.832 577.972 211.832C578.42 211.832 578.788 211.976 579.076 212.264C579.38 212.536 579.532 212.88 579.532 213.296C579.532 213.728 579.388 214.096 579.1 214.4C578.812 214.688 578.436 214.832 577.972 214.832ZM589.184 230.144C587.824 230.144 586.624 229.864 585.584 229.304C584.56 228.744 583.76 227.976 583.184 227C582.624 226.024 582.344 224.904 582.344 223.64C582.344 222.376 582.616 221.256 583.16 220.28C583.72 219.304 584.48 218.544 585.44 218C586.416 217.44 587.512 217.16 588.728 217.16C589.96 217.16 591.048 217.432 591.992 217.976C592.936 218.52 593.672 219.288 594.2 220.28C594.744 221.256 595.016 222.4 595.016 223.712C595.016 223.808 595.008 223.92 594.992 224.048C594.992 224.176 594.984 224.296 594.968 224.408H584.144V222.752H593.768L592.832 223.328C592.848 222.512 592.68 221.784 592.328 221.144C591.976 220.504 591.488 220.008 590.864 219.656C590.256 219.288 589.544 219.104 588.728 219.104C587.928 219.104 587.216 219.288 586.592 219.656C585.968 220.008 585.48 220.512 585.128 221.168C584.776 221.808 584.6 222.544 584.6 223.376V223.76C584.6 224.608 584.792 225.368 585.176 226.04C585.576 226.696 586.128 227.208 586.832 227.576C587.536 227.944 588.344 228.128 589.256 228.128C590.008 228.128 590.688 228 591.296 227.744C591.92 227.488 592.464 227.104 592.928 226.592L594.2 228.08C593.624 228.752 592.904 229.264 592.04 229.616C591.192 229.968 590.24 230.144 589.184 230.144ZM600.087 226.928L600.135 223.976L607.455 217.28H610.239L604.623 222.8L603.375 223.856L600.087 226.928ZM598.215 230V212.192H600.519V230H598.215ZM607.935 230L602.943 223.808L604.431 221.96L610.767 230H607.935ZM617.372 230.144C616.092 230.144 615.1 229.8 614.396 229.112C613.692 228.424 613.34 227.44 613.34 226.16V214.496H615.644V226.064C615.644 226.752 615.812 227.28 616.148 227.648C616.5 228.016 616.996 228.2 617.636 228.2C618.356 228.2 618.956 228 619.436 227.6L620.156 229.256C619.804 229.56 619.38 229.784 618.884 229.928C618.404 230.072 617.9 230.144 617.372 230.144ZM611.18 219.176V217.28H619.292V219.176H611.18ZM630.838 230V227.312L630.718 226.808V222.224C630.718 221.248 630.43 220.496 629.854 219.968C629.294 219.424 628.446 219.152 627.31 219.152C626.558 219.152 625.822 219.28 625.102 219.536C624.382 219.776 623.774 220.104 623.278 220.52L622.318 218.792C622.974 218.264 623.758 217.864 624.67 217.592C625.598 217.304 626.566 217.16 627.574 217.16C629.318 217.16 630.662 217.584 631.606 218.432C632.55 219.28 633.022 220.576 633.022 222.32V230H630.838ZM626.662 230.144C625.718 230.144 624.886 229.984 624.166 229.664C623.462 229.344 622.918 228.904 622.534 228.344C622.15 227.768 621.958 227.12 621.958 226.4C621.958 225.712 622.118 225.088 622.438 224.528C622.774 223.968 623.31 223.52 624.046 223.184C624.798 222.848 625.806 222.68 627.07 222.68H631.102V224.336H627.166C626.014 224.336 625.238 224.528 624.838 224.912C624.438 225.296 624.238 225.76 624.238 226.304C624.238 226.928 624.486 227.432 624.982 227.816C625.478 228.184 626.166 228.368 627.046 228.368C627.91 228.368 628.662 228.176 629.302 227.792C629.958 227.408 630.43 226.848 630.718 226.112L631.174 227.696C630.87 228.448 630.334 229.048 629.566 229.496C628.798 229.928 627.83 230.144 626.662 230.144ZM642.638 230.144C641.55 230.144 640.59 229.944 639.758 229.544C638.942 229.144 638.302 228.536 637.838 227.72C637.39 226.888 637.166 225.848 637.166 224.6V217.28H639.47V224.336C639.47 225.584 639.766 226.52 640.358 227.144C640.966 227.768 641.814 228.08 642.902 228.08C643.702 228.08 644.398 227.92 644.99 227.6C645.582 227.264 646.038 226.784 646.358 226.16C646.678 225.52 646.838 224.752 646.838 223.856V217.28H649.142V230H646.958V226.568L647.318 227.48C646.902 228.328 646.278 228.984 645.446 229.448C644.614 229.912 643.678 230.144 642.638 230.144ZM653.864 230V216.152C653.864 214.904 654.224 213.912 654.944 213.176C655.68 212.424 656.72 212.048 658.064 212.048C658.56 212.048 659.032 212.112 659.48 212.24C659.944 212.352 660.336 212.536 660.656 212.792L659.96 214.544C659.72 214.352 659.448 214.208 659.144 214.112C658.84 214 658.52 213.944 658.184 213.944C657.512 213.944 657 214.136 656.648 214.52C656.296 214.888 656.12 215.44 656.12 216.176V217.88L656.168 218.936V230H653.864ZM651.704 219.176V217.28H659.816V219.176H651.704ZM668.733 230.144C667.645 230.144 666.661 229.904 665.781 229.424C664.917 228.928 664.229 228.2 663.717 227.24C663.221 226.28 662.973 225.08 662.973 223.64C662.973 222.2 663.229 221 663.741 220.04C664.269 219.08 664.965 218.36 665.829 217.88C666.709 217.4 667.677 217.16 668.733 217.16C669.981 217.16 671.085 217.432 672.045 217.976C673.005 218.52 673.765 219.28 674.325 220.256C674.885 221.216 675.165 222.344 675.165 223.64C675.165 224.936 674.885 226.072 674.325 227.048C673.765 228.024 673.005 228.784 672.045 229.328C671.085 229.872 669.981 230.144 668.733 230.144ZM661.989 230V212.192H664.293V220.664L664.053 223.616L664.197 226.568V230H661.989ZM668.541 228.128C669.357 228.128 670.085 227.944 670.725 227.576C671.381 227.208 671.893 226.688 672.261 226.016C672.645 225.328 672.837 224.536 672.837 223.64C672.837 222.728 672.645 221.944 672.261 221.288C671.893 220.616 671.381 220.096 670.725 219.728C670.085 219.36 669.357 219.176 668.541 219.176C667.741 219.176 667.013 219.36 666.357 219.728C665.717 220.096 665.205 220.616 664.821 221.288C664.453 221.944 664.269 222.728 664.269 223.64C664.269 224.536 664.453 225.328 664.821 226.016C665.205 226.688 665.717 227.208 666.357 227.576C667.013 227.944 667.741 228.128 668.541 228.128ZM684.012 230.144C682.652 230.144 681.452 229.864 680.412 229.304C679.388 228.744 678.588 227.976 678.012 227C677.452 226.024 677.172 224.904 677.172 223.64C677.172 222.376 677.444 221.256 677.988 220.28C678.548 219.304 679.308 218.544 680.268 218C681.244 217.44 682.34 217.16 683.556 217.16C684.788 217.16 685.876 217.432 686.82 217.976C687.764 218.52 688.5 219.288 689.028 220.28C689.572 221.256 689.844 222.4 689.844 223.712C689.844 223.808 689.836 223.92 689.82 224.048C689.82 224.176 689.812 224.296 689.796 224.408H678.972V222.752H688.596L687.66 223.328C687.676 222.512 687.508 221.784 687.156 221.144C686.804 220.504 686.316 220.008 685.692 219.656C685.084 219.288 684.372 219.104 683.556 219.104C682.756 219.104 682.044 219.288 681.42 219.656C680.796 220.008 680.308 220.512 679.956 221.168C679.604 221.808 679.428 222.544 679.428 223.376V223.76C679.428 224.608 679.62 225.368 680.004 226.04C680.404 226.696 680.956 227.208 681.66 227.576C682.364 227.944 683.172 228.128 684.084 228.128C684.836 228.128 685.516 228 686.124 227.744C686.748 227.488 687.292 227.104 687.756 226.592L689.028 228.08C688.452 228.752 687.732 229.264 686.868 229.616C686.02 229.968 685.068 230.144 684.012 230.144ZM693.043 230V217.28H695.251V220.736L695.035 219.872C695.387 218.992 695.979 218.32 696.811 217.856C697.643 217.392 698.667 217.16 699.883 217.16V219.392C699.787 219.376 699.691 219.368 699.595 219.368C699.515 219.368 699.435 219.368 699.355 219.368C698.123 219.368 697.147 219.736 696.427 220.472C695.707 221.208 695.347 222.272 695.347 223.664V230H693.043ZM708.27 230.144C706.91 230.144 705.71 229.864 704.67 229.304C703.646 228.744 702.846 227.976 702.27 227C701.71 226.024 701.43 224.904 701.43 223.64C701.43 222.376 701.702 221.256 702.246 220.28C702.806 219.304 703.566 218.544 704.526 218C705.502 217.44 706.598 217.16 707.814 217.16C709.046 217.16 710.134 217.432 711.078 217.976C712.022 218.52 712.758 219.288 713.286 220.28C713.83 221.256 714.102 222.4 714.102 223.712C714.102 223.808 714.094 223.92 714.078 224.048C714.078 224.176 714.07 224.296 714.054 224.408H703.23V222.752H712.854L711.918 223.328C711.934 222.512 711.766 221.784 711.414 221.144C711.062 220.504 710.574 220.008 709.95 219.656C709.342 219.288 708.63 219.104 707.814 219.104C707.014 219.104 706.302 219.288 705.678 219.656C705.054 220.008 704.566 220.512 704.214 221.168C703.862 221.808 703.686 222.544 703.686 223.376V223.76C703.686 224.608 703.878 225.368 704.262 226.04C704.662 226.696 705.214 227.208 705.918 227.576C706.622 227.944 707.43 228.128 708.342 228.128C709.094 228.128 709.774 228 710.382 227.744C711.006 227.488 711.55 227.104 712.014 226.592L713.286 228.08C712.71 228.752 711.99 229.264 711.126 229.616C710.278 229.968 709.326 230.144 708.27 230.144ZM717.301 230V217.28H719.605V230H717.301ZM718.453 214.832C718.005 214.832 717.629 214.688 717.325 214.4C717.037 214.112 716.893 213.76 716.893 213.344C716.893 212.912 717.037 212.552 717.325 212.264C717.629 211.976 718.005 211.832 718.453 211.832C718.901 211.832 719.269 211.976 719.557 212.264C719.861 212.536 720.013 212.88 720.013 213.296C720.013 213.728 719.869 214.096 719.581 214.4C719.293 214.688 718.917 214.832 718.453 214.832ZM728.372 230.144C727.092 230.144 726.1 229.8 725.396 229.112C724.692 228.424 724.34 227.44 724.34 226.16V214.496H726.644V226.064C726.644 226.752 726.812 227.28 727.148 227.648C727.5 228.016 727.996 228.2 728.636 228.2C729.356 228.2 729.956 228 730.436 227.6L731.156 229.256C730.804 229.56 730.38 229.784 729.884 229.928C729.404 230.072 728.9 230.144 728.372 230.144ZM722.18 219.176V217.28H730.292V219.176H722.18ZM739.294 230.144C738.206 230.144 737.246 229.944 736.414 229.544C735.598 229.144 734.958 228.536 734.494 227.72C734.046 226.888 733.822 225.848 733.822 224.6V217.28H736.126V224.336C736.126 225.584 736.422 226.52 737.014 227.144C737.622 227.768 738.47 228.08 739.558 228.08C740.358 228.08 741.054 227.92 741.646 227.6C742.238 227.264 742.694 226.784 743.014 226.16C743.334 225.52 743.494 224.752 743.494 223.856V217.28H745.798V230H743.614V226.568L743.974 227.48C743.558 228.328 742.934 228.984 742.102 229.448C741.27 229.912 740.334 230.144 739.294 230.144ZM756.976 217.16C758.016 217.16 758.928 217.36 759.712 217.76C760.512 218.16 761.136 218.768 761.584 219.584C762.032 220.4 762.256 221.432 762.256 222.68V230H759.952V222.944C759.952 221.712 759.648 220.784 759.04 220.16C758.448 219.536 757.608 219.224 756.52 219.224C755.704 219.224 754.992 219.384 754.384 219.704C753.776 220.024 753.304 220.496 752.968 221.12C752.648 221.744 752.488 222.52 752.488 223.448V230H750.184V217.28H752.392V220.712L752.032 219.8C752.448 218.968 753.088 218.32 753.952 217.856C754.816 217.392 755.824 217.16 756.976 217.16ZM772.088 234.8C770.92 234.8 769.784 234.632 768.68 234.296C767.592 233.976 766.704 233.512 766.016 232.904L767.12 231.128C767.712 231.64 768.44 232.04 769.304 232.328C770.168 232.632 771.072 232.784 772.016 232.784C773.52 232.784 774.624 232.432 775.328 231.728C776.032 231.024 776.384 229.952 776.384 228.512V225.824L776.624 223.304L776.504 220.76V217.28H778.688V228.272C778.688 230.512 778.128 232.16 777.008 233.216C775.888 234.272 774.248 234.8 772.088 234.8ZM771.8 229.472C770.568 229.472 769.464 229.216 768.488 228.704C767.528 228.176 766.76 227.448 766.184 226.52C765.624 225.592 765.344 224.52 765.344 223.304C765.344 222.072 765.624 221 766.184 220.088C766.76 219.16 767.528 218.44 768.488 217.928C769.464 217.416 770.568 217.16 771.8 217.16C772.888 217.16 773.88 217.384 774.776 217.832C775.672 218.264 776.384 218.936 776.912 219.848C777.456 220.76 777.728 221.912 777.728 223.304C777.728 224.68 777.456 225.824 776.912 226.736C776.384 227.648 775.672 228.336 774.776 228.8C773.88 229.248 772.888 229.472 771.8 229.472ZM772.064 227.456C772.912 227.456 773.664 227.28 774.32 226.928C774.976 226.576 775.488 226.088 775.856 225.464C776.24 224.84 776.432 224.12 776.432 223.304C776.432 222.488 776.24 221.768 775.856 221.144C775.488 220.52 774.976 220.04 774.32 219.704C773.664 219.352 772.912 219.176 772.064 219.176C771.216 219.176 770.456 219.352 769.784 219.704C769.128 220.04 768.608 220.52 768.224 221.144C767.856 221.768 767.672 222.488 767.672 223.304C767.672 224.12 767.856 224.84 768.224 225.464C768.608 226.088 769.128 226.576 769.784 226.928C770.456 227.28 771.216 227.456 772.064 227.456Z" fill="white"/>
</svg>
