<svg width="1200" height="630" viewBox="0 0 1200 630" fill="none" xmlns="http://www.w3.org/2000/svg">
<path d="M73.148 437V197.6H117.608V399.38H242.78V437H73.148ZM277.88 437V197.6H322.34V437H277.88ZM428.133 297.122H547.149V333.716H428.133V297.122ZM431.553 399.722H566.643V437H387.093V197.6H561.855V234.878H431.553V399.722ZM616.207 437V197.6H714.703C735.907 197.6 754.033 201.02 769.081 207.86C784.357 214.7 796.099 224.504 804.307 237.272C812.515 250.04 816.619 265.202 816.619 282.758C816.619 300.314 812.515 315.476 804.307 328.244C796.099 340.784 784.357 350.474 769.081 357.314C754.033 363.926 735.907 367.232 714.703 367.232H640.831L660.667 347.054V437H616.207ZM772.843 437L712.309 350.132H759.847L820.723 437H772.843ZM660.667 351.842L640.831 330.638H712.651C732.259 330.638 746.965 326.42 756.769 317.984C766.801 309.548 771.817 297.806 771.817 282.758C771.817 267.482 766.801 255.74 756.769 247.532C746.965 239.324 732.259 235.22 712.651 235.22H640.831L660.667 213.332V351.842Z" fill="white"/>
<path d="M848.472 437.256C846.765 437.256 845.176 436.968 843.704 436.392C842.253 435.816 840.995 435.016 839.928 433.992C838.861 432.947 838.029 431.731 837.432 430.344C836.835 428.957 836.536 427.443 836.536 425.8C836.536 424.157 836.835 422.643 837.432 421.256C838.029 419.869 838.861 418.664 839.928 417.64C840.995 416.595 842.253 415.784 843.704 415.208C845.155 414.632 846.744 414.344 848.472 414.344C850.179 414.344 851.747 414.632 853.176 415.208C854.627 415.763 855.885 416.563 856.952 417.608C858.04 418.632 858.872 419.837 859.448 421.224C860.045 422.611 860.344 424.136 860.344 425.8C860.344 427.464 860.045 428.989 859.448 430.376C858.872 431.763 858.04 432.979 856.952 434.024C855.885 435.048 854.627 435.848 853.176 436.424C851.747 436.979 850.179 437.256 848.472 437.256ZM848.472 434.408C849.709 434.408 850.851 434.195 851.896 433.768C852.963 433.341 853.88 432.744 854.648 431.976C855.437 431.187 856.045 430.269 856.472 429.224C856.92 428.179 857.144 427.037 857.144 425.8C857.144 424.563 856.92 423.421 856.472 422.376C856.045 421.331 855.437 420.424 854.648 419.656C853.88 418.867 852.963 418.259 851.896 417.832C850.851 417.405 849.709 417.192 848.472 417.192C847.213 417.192 846.051 417.405 844.984 417.832C843.939 418.259 843.021 418.867 842.232 419.656C841.443 420.424 840.824 421.331 840.376 422.376C839.949 423.421 839.736 424.563 839.736 425.8C839.736 427.037 839.949 428.179 840.376 429.224C840.824 430.269 841.443 431.187 842.232 431.976C843.021 432.744 843.939 433.341 844.984 433.768C846.051 434.195 847.213 434.408 848.472 434.408ZM873.779 437.192C872.328 437.192 871.016 436.872 869.843 436.232C868.691 435.571 867.774 434.6 867.091 433.32C866.43 432.04 866.099 430.44 866.099 428.52C866.099 426.6 866.44 425 867.123 423.72C867.827 422.44 868.755 421.48 869.907 420.84C871.08 420.2 872.371 419.88 873.779 419.88C875.443 419.88 876.915 420.243 878.195 420.968C879.475 421.693 880.488 422.707 881.235 424.008C881.982 425.288 882.355 426.792 882.355 428.52C882.355 430.248 881.982 431.763 881.235 433.064C880.488 434.365 879.475 435.379 878.195 436.104C876.915 436.829 875.443 437.192 873.779 437.192ZM864.787 437V413.256H867.859V424.552L867.539 428.488L867.731 432.424V437H864.787ZM873.523 434.504C874.611 434.504 875.582 434.259 876.435 433.768C877.31 433.277 877.992 432.584 878.483 431.688C878.995 430.771 879.251 429.715 879.251 428.52C879.251 427.304 878.995 426.259 878.483 425.384C877.992 424.488 877.31 423.795 876.435 423.304C875.582 422.813 874.611 422.568 873.523 422.568C872.456 422.568 871.486 422.813 870.611 423.304C869.758 423.795 869.075 424.488 868.563 425.384C868.072 426.259 867.827 427.304 867.827 428.52C867.827 429.715 868.072 430.771 868.563 431.688C869.075 432.584 869.758 433.277 870.611 433.768C871.486 434.259 872.456 434.504 873.523 434.504ZM884.424 443.4C883.72 443.4 883.047 443.315 882.407 443.144C881.746 442.973 881.191 442.717 880.743 442.376L881.735 440.008C882.375 440.541 883.207 440.808 884.232 440.808C885.042 440.808 885.661 440.552 886.088 440.04C886.536 439.549 886.76 438.813 886.76 437.832V420.04H889.832V437.768C889.832 439.496 889.362 440.861 888.424 441.864C887.506 442.888 886.173 443.4 884.424 443.4ZM888.296 416.776C887.698 416.776 887.197 416.584 886.792 416.2C886.408 415.816 886.216 415.347 886.216 414.792C886.216 414.216 886.408 413.736 886.792 413.352C887.197 412.968 887.698 412.776 888.296 412.776C888.893 412.776 889.384 412.968 889.768 413.352C890.173 413.715 890.376 414.173 890.376 414.728C890.376 415.304 890.184 415.795 889.8 416.2C889.416 416.584 888.914 416.776 888.296 416.776ZM903.245 437.192C901.432 437.192 899.832 436.819 898.445 436.072C897.08 435.325 896.013 434.301 895.245 433C894.499 431.699 894.125 430.205 894.125 428.52C894.125 426.835 894.488 425.341 895.213 424.04C895.96 422.739 896.973 421.725 898.253 421C899.555 420.253 901.016 419.88 902.637 419.88C904.28 419.88 905.731 420.243 906.989 420.968C908.248 421.693 909.229 422.717 909.933 424.04C910.659 425.341 911.021 426.867 911.021 428.616C911.021 428.744 911.011 428.893 910.989 429.064C910.989 429.235 910.979 429.395 910.957 429.544H896.525V427.336H909.357L908.109 428.104C908.131 427.016 907.907 426.045 907.437 425.192C906.968 424.339 906.317 423.677 905.485 423.208C904.675 422.717 903.725 422.472 902.637 422.472C901.571 422.472 900.621 422.717 899.789 423.208C898.957 423.677 898.307 424.349 897.837 425.224C897.368 426.077 897.133 427.059 897.133 428.168V428.68C897.133 429.811 897.389 430.824 897.901 431.72C898.435 432.595 899.171 433.277 900.109 433.768C901.048 434.259 902.125 434.504 903.341 434.504C904.344 434.504 905.251 434.333 906.061 433.992C906.893 433.651 907.619 433.139 908.237 432.456L909.933 434.44C909.165 435.336 908.205 436.019 907.053 436.488C905.923 436.957 904.653 437.192 903.245 437.192ZM917.783 432.904L917.847 428.968L927.607 420.04H931.319L923.831 427.4L922.167 428.808L917.783 432.904ZM915.287 437V413.256H918.359V437H915.287ZM928.247 437L921.591 428.744L923.575 426.28L932.023 437H928.247ZM940.83 437.192C939.123 437.192 937.8 436.733 936.862 435.816C935.923 434.899 935.454 433.587 935.454 431.88V416.328H938.526V431.752C938.526 432.669 938.75 433.373 939.198 433.864C939.667 434.355 940.328 434.6 941.182 434.6C942.142 434.6 942.942 434.333 943.582 433.8L944.542 436.008C944.072 436.413 943.507 436.712 942.846 436.904C942.206 437.096 941.534 437.192 940.83 437.192ZM932.574 422.568V420.04H943.39V422.568H932.574ZM958.784 437V433.416L958.624 432.744V426.632C958.624 425.331 958.24 424.328 957.472 423.624C956.725 422.899 955.594 422.536 954.08 422.536C953.077 422.536 952.096 422.707 951.136 423.048C950.176 423.368 949.365 423.805 948.704 424.36L947.424 422.056C948.298 421.352 949.344 420.819 950.56 420.456C951.797 420.072 953.088 419.88 954.432 419.88C956.757 419.88 958.549 420.445 959.808 421.576C961.066 422.707 961.696 424.435 961.696 426.76V437H958.784ZM953.216 437.192C951.957 437.192 950.848 436.979 949.888 436.552C948.949 436.125 948.224 435.539 947.712 434.792C947.2 434.024 946.944 433.16 946.944 432.2C946.944 431.283 947.157 430.451 947.584 429.704C948.032 428.957 948.746 428.36 949.728 427.912C950.73 427.464 952.074 427.24 953.76 427.24H959.136V429.448H953.888C952.352 429.448 951.317 429.704 950.784 430.216C950.25 430.728 949.984 431.347 949.984 432.072C949.984 432.904 950.314 433.576 950.976 434.088C951.637 434.579 952.554 434.824 953.728 434.824C954.88 434.824 955.882 434.568 956.736 434.056C957.61 433.544 958.24 432.797 958.624 431.816L959.232 433.928C958.826 434.931 958.112 435.731 957.088 436.328C956.064 436.904 954.773 437.192 953.216 437.192ZM974.517 437.192C973.066 437.192 971.786 436.925 970.677 436.392C969.589 435.859 968.735 435.048 968.117 433.96C967.519 432.851 967.221 431.464 967.221 429.8V420.04H970.293V429.448C970.293 431.112 970.687 432.36 971.477 433.192C972.287 434.024 973.418 434.44 974.869 434.44C975.935 434.44 976.863 434.227 977.653 433.8C978.442 433.352 979.05 432.712 979.477 431.88C979.903 431.027 980.117 430.003 980.117 428.808V420.04H983.189V437H980.277V432.424L980.757 433.64C980.202 434.771 979.37 435.645 978.261 436.264C977.151 436.883 975.903 437.192 974.517 437.192ZM989.485 437V418.536C989.485 416.872 989.965 415.549 990.925 414.568C991.906 413.565 993.293 413.064 995.085 413.064C995.746 413.064 996.376 413.149 996.973 413.32C997.592 413.469 998.114 413.715 998.541 414.056L997.613 416.392C997.293 416.136 996.93 415.944 996.525 415.816C996.12 415.667 995.693 415.592 995.245 415.592C994.349 415.592 993.666 415.848 993.197 416.36C992.728 416.851 992.493 417.587 992.493 418.568V420.84L992.557 422.248V437H989.485ZM986.605 422.568V420.04H997.421V422.568H986.605ZM1009.31 437.192C1007.86 437.192 1006.55 436.872 1005.37 436.232C1004.22 435.571 1003.3 434.6 1002.62 433.32C1001.96 432.04 1001.63 430.44 1001.63 428.52C1001.63 426.6 1001.97 425 1002.65 423.72C1003.36 422.44 1004.29 421.48 1005.44 420.84C1006.61 420.2 1007.9 419.88 1009.31 419.88C1010.97 419.88 1012.45 420.243 1013.73 420.968C1015.01 421.693 1016.02 422.707 1016.77 424.008C1017.51 425.288 1017.89 426.792 1017.89 428.52C1017.89 430.248 1017.51 431.763 1016.77 433.064C1016.02 434.365 1015.01 435.379 1013.73 436.104C1012.45 436.829 1010.97 437.192 1009.31 437.192ZM1000.32 437V413.256H1003.39V424.552L1003.07 428.488L1003.26 432.424V437H1000.32ZM1009.05 434.504C1010.14 434.504 1011.11 434.259 1011.97 433.768C1012.84 433.277 1013.52 432.584 1014.01 431.688C1014.53 430.771 1014.78 429.715 1014.78 428.52C1014.78 427.304 1014.53 426.259 1014.01 425.384C1013.52 424.488 1012.84 423.795 1011.97 423.304C1011.11 422.813 1010.14 422.568 1009.05 422.568C1007.99 422.568 1007.02 422.813 1006.14 423.304C1005.29 423.795 1004.61 424.488 1004.09 425.384C1003.6 426.259 1003.36 427.304 1003.36 428.52C1003.36 429.715 1003.6 430.771 1004.09 431.688C1004.61 432.584 1005.29 433.277 1006.14 433.768C1007.02 434.259 1007.99 434.504 1009.05 434.504ZM1029.68 437.192C1027.87 437.192 1026.27 436.819 1024.88 436.072C1023.52 435.325 1022.45 434.301 1021.68 433C1020.94 431.699 1020.56 430.205 1020.56 428.52C1020.56 426.835 1020.93 425.341 1021.65 424.04C1022.4 422.739 1023.41 421.725 1024.69 421C1025.99 420.253 1027.45 419.88 1029.07 419.88C1030.72 419.88 1032.17 420.243 1033.43 420.968C1034.69 421.693 1035.67 422.717 1036.37 424.04C1037.1 425.341 1037.46 426.867 1037.46 428.616C1037.46 428.744 1037.45 428.893 1037.43 429.064C1037.43 429.235 1037.42 429.395 1037.39 429.544H1022.96V427.336H1035.79L1034.55 428.104C1034.57 427.016 1034.34 426.045 1033.87 425.192C1033.41 424.339 1032.75 423.677 1031.92 423.208C1031.11 422.717 1030.16 422.472 1029.07 422.472C1028.01 422.472 1027.06 422.717 1026.23 423.208C1025.39 423.677 1024.74 424.349 1024.27 425.224C1023.81 426.077 1023.57 427.059 1023.57 428.168V428.68C1023.57 429.811 1023.83 430.824 1024.34 431.72C1024.87 432.595 1025.61 433.277 1026.55 433.768C1027.49 434.259 1028.56 434.504 1029.78 434.504C1030.78 434.504 1031.69 434.333 1032.5 433.992C1033.33 433.651 1034.06 433.139 1034.67 432.456L1036.37 434.44C1035.6 435.336 1034.64 436.019 1033.49 436.488C1032.36 436.957 1031.09 437.192 1029.68 437.192ZM1041.72 437V420.04H1044.67V424.648L1044.38 423.496C1044.85 422.323 1045.64 421.427 1046.75 420.808C1047.86 420.189 1049.22 419.88 1050.84 419.88V422.856C1050.72 422.835 1050.59 422.824 1050.46 422.824C1050.35 422.824 1050.25 422.824 1050.14 422.824C1048.5 422.824 1047.2 423.315 1046.24 424.296C1045.28 425.277 1044.8 426.696 1044.8 428.552V437H1041.72ZM1062.03 437.192C1060.21 437.192 1058.61 436.819 1057.23 436.072C1055.86 435.325 1054.79 434.301 1054.03 433C1053.28 431.699 1052.91 430.205 1052.91 428.52C1052.91 426.835 1053.27 425.341 1053.99 424.04C1054.74 422.739 1055.75 421.725 1057.03 421C1058.34 420.253 1059.8 419.88 1061.42 419.88C1063.06 419.88 1064.51 420.243 1065.77 420.968C1067.03 421.693 1068.01 422.717 1068.71 424.04C1069.44 425.341 1069.8 426.867 1069.8 428.616C1069.8 428.744 1069.79 428.893 1069.77 429.064C1069.77 429.235 1069.76 429.395 1069.74 429.544H1055.31V427.336H1068.14L1066.89 428.104C1066.91 427.016 1066.69 426.045 1066.22 425.192C1065.75 424.339 1065.1 423.677 1064.27 423.208C1063.46 422.717 1062.51 422.472 1061.42 422.472C1060.35 422.472 1059.4 422.717 1058.57 423.208C1057.74 423.677 1057.09 424.349 1056.62 425.224C1056.15 426.077 1055.91 427.059 1055.91 428.168V428.68C1055.91 429.811 1056.17 430.824 1056.68 431.72C1057.22 432.595 1057.95 433.277 1058.89 433.768C1059.83 434.259 1060.91 434.504 1062.12 434.504C1063.13 434.504 1064.03 434.333 1064.84 433.992C1065.67 433.651 1066.4 433.139 1067.02 432.456L1068.71 434.44C1067.95 435.336 1066.99 436.019 1065.83 436.488C1064.7 436.957 1063.43 437.192 1062.03 437.192ZM1074.07 437V420.04H1077.14V437H1074.07ZM1075.6 416.776C1075.01 416.776 1074.51 416.584 1074.1 416.2C1073.72 415.816 1073.52 415.347 1073.52 414.792C1073.52 414.216 1073.72 413.736 1074.1 413.352C1074.51 412.968 1075.01 412.776 1075.6 412.776C1076.2 412.776 1076.69 412.968 1077.08 413.352C1077.48 413.715 1077.68 414.173 1077.68 414.728C1077.68 415.304 1077.49 415.795 1077.11 416.2C1076.72 416.584 1076.22 416.776 1075.6 416.776ZM1088.83 437.192C1087.12 437.192 1085.8 436.733 1084.86 435.816C1083.92 434.899 1083.45 433.587 1083.45 431.88V416.328H1086.53V431.752C1086.53 432.669 1086.75 433.373 1087.2 433.864C1087.67 434.355 1088.33 434.6 1089.18 434.6C1090.14 434.6 1090.94 434.333 1091.58 433.8L1092.54 436.008C1092.07 436.413 1091.51 436.712 1090.85 436.904C1090.21 437.096 1089.53 437.192 1088.83 437.192ZM1080.57 422.568V420.04H1091.39V422.568H1080.57ZM1103.39 437.192C1101.94 437.192 1100.66 436.925 1099.55 436.392C1098.46 435.859 1097.61 435.048 1096.99 433.96C1096.39 432.851 1096.1 431.464 1096.1 429.8V420.04H1099.17V429.448C1099.17 431.112 1099.56 432.36 1100.35 433.192C1101.16 434.024 1102.29 434.44 1103.74 434.44C1104.81 434.44 1105.74 434.227 1106.53 433.8C1107.32 433.352 1107.93 432.712 1108.35 431.88C1108.78 431.027 1108.99 430.003 1108.99 428.808V420.04H1112.06V437H1109.15V432.424L1109.63 433.64C1109.08 434.771 1108.25 435.645 1107.14 436.264C1106.03 436.883 1104.78 437.192 1103.39 437.192ZM1126.97 419.88C1128.35 419.88 1129.57 420.147 1130.62 420.68C1131.68 421.213 1132.51 422.024 1133.11 423.112C1133.71 424.2 1134.01 425.576 1134.01 427.24V437H1130.94V427.592C1130.94 425.949 1130.53 424.712 1129.72 423.88C1128.93 423.048 1127.81 422.632 1126.36 422.632C1125.27 422.632 1124.32 422.845 1123.51 423.272C1122.7 423.699 1122.07 424.328 1121.62 425.16C1121.2 425.992 1120.98 427.027 1120.98 428.264V437H1117.91V420.04H1120.86V424.616L1120.38 423.4C1120.93 422.291 1121.78 421.427 1122.94 420.808C1124.09 420.189 1125.43 419.88 1126.97 419.88ZM1147.12 443.4C1145.56 443.4 1144.05 443.176 1142.57 442.728C1141.12 442.301 1139.94 441.683 1139.02 440.872L1140.49 438.504C1141.28 439.187 1142.25 439.72 1143.41 440.104C1144.56 440.509 1145.76 440.712 1147.02 440.712C1149.03 440.712 1150.5 440.243 1151.44 439.304C1152.38 438.365 1152.85 436.936 1152.85 435.016V431.432L1153.17 428.072L1153.01 424.68V420.04H1155.92V434.696C1155.92 437.683 1155.17 439.88 1153.68 441.288C1152.18 442.696 1150 443.4 1147.12 443.4ZM1146.73 436.296C1145.09 436.296 1143.62 435.955 1142.32 435.272C1141.04 434.568 1140.01 433.597 1139.25 432.36C1138.5 431.123 1138.13 429.693 1138.13 428.072C1138.13 426.429 1138.5 425 1139.25 423.784C1140.01 422.547 1141.04 421.587 1142.32 420.904C1143.62 420.221 1145.09 419.88 1146.73 419.88C1148.18 419.88 1149.51 420.179 1150.7 420.776C1151.9 421.352 1152.85 422.248 1153.55 423.464C1154.27 424.68 1154.64 426.216 1154.64 428.072C1154.64 429.907 1154.27 431.432 1153.55 432.648C1152.85 433.864 1151.9 434.781 1150.7 435.4C1149.51 435.997 1148.18 436.296 1146.73 436.296ZM1147.09 433.608C1148.22 433.608 1149.22 433.373 1150.09 432.904C1150.97 432.435 1151.65 431.784 1152.14 430.952C1152.65 430.12 1152.91 429.16 1152.91 428.072C1152.91 426.984 1152.65 426.024 1152.14 425.192C1151.65 424.36 1150.97 423.72 1150.09 423.272C1149.22 422.803 1148.22 422.568 1147.09 422.568C1145.95 422.568 1144.94 422.803 1144.05 423.272C1143.17 423.72 1142.48 424.36 1141.97 425.192C1141.47 426.024 1141.23 426.984 1141.23 428.072C1141.23 429.16 1141.47 430.12 1141.97 430.952C1142.48 431.784 1143.17 432.435 1144.05 432.904C1144.94 433.373 1145.95 433.608 1147.09 433.608Z" fill="white"/>
</svg>
